<?xml version="1.0" encoding="UTF-8" standalone="no"?>
<!-- Created with Inkscape (http://www.inkscape.org/) -->

<svg
   xmlns:dc="http://purl.org/dc/elements/1.1/"
   xmlns:cc="http://creativecommons.org/ns#"
   xmlns:rdf="http://www.w3.org/1999/02/22-rdf-syntax-ns#"
   xmlns:svg="http://www.w3.org/2000/svg"
   xmlns="http://www.w3.org/2000/svg"
   xmlns:sodipodi="http://sodipodi.sourceforge.net/DTD/sodipodi-0.dtd"
   xmlns:inkscape="http://www.inkscape.org/namespaces/inkscape"
   width="512"
   height="512"
   viewBox="0 0 135.46666 135.46667"
   version="1.1"
   id="svg835"
   inkscape:version="0.92.5 (2060ec1f9f, 2020-04-08)"
   sodipodi:docname="reminderlist-appicon-legacy.svg"
   inkscape:export-filename="C:\Users\Owner\Desktop\Android Projects\ReminderList\inkscape_icons\reminderlist-appicon-legacy.png"
   inkscape:export-xdpi="96"
   inkscape:export-ydpi="96">
  <defs
     id="defs829" />
  <sodipodi:namedview
     id="base"
     pagecolor="#ffffff"
     bordercolor="#666666"
     borderopacity="1.0"
     inkscape:pageopacity="0.0"
     inkscape:pageshadow="2"
     inkscape:zoom="0.98994949"
     inkscape:cx="88.748441"
     inkscape:cy="206.20993"
     inkscape:document-units="px"
     inkscape:current-layer="layer1"
     showgrid="false"
     units="px"
     showborder="true"
     inkscape:window-width="1920"
     inkscape:window-height="1017"
     inkscape:window-x="-8"
     inkscape:window-y="-8"
     inkscape:window-maximized="1" />
  <metadata
     id="metadata832">
    <rdf:RDF>
      <cc:Work
         rdf:about="">
        <dc:format>image/svg+xml</dc:format>
        <dc:type
           rdf:resource="http://purl.org/dc/dcmitype/StillImage" />
        <dc:title></dc:title>
      </cc:Work>
    </rdf:RDF>
  </metadata>
  <g
     inkscape:label="Layer 1"
     inkscape:groupmode="layer"
     id="layer1"
     transform="translate(0,-161.53332)">
    <rect
       style="opacity:1;fill:#1185a1;fill-opacity:1;fill-rule:evenodd;stroke:none;stroke-width:0.26979542"
       id="rect815"
       width="81.478218"
       height="81.478218"
       x="26.994223"
       y="188.52754"
       ry="40.739109"
       inkscape:export-xdpi="96"
       inkscape:export-ydpi="96" />
    <path
       style="opacity:1;fill:#decd87;fill-opacity:1;fill-rule:evenodd;stroke:none;stroke-width:0.16624135"
       d="M 67.733332,200.3425 A 28.736007,28.736007 0 0 0 38.997285,229.07855 28.736007,28.736007 0 0 0 67.733332,257.8146 28.736007,28.736007 0 0 0 96.46938,229.07855 28.736007,28.736007 0 0 0 67.733332,200.3425 Z m 0,3.83155 a 24.904541,24.904541 0 0 1 24.904498,24.9045 24.904541,24.904541 0 0 1 -24.904498,24.90449 24.904541,24.904541 0 0 1 -24.904496,-24.90449 24.904541,24.904541 0 0 1 24.904496,-24.9045 z"
       id="path1961"
       inkscape:connector-curvature="0" />
    <path
       style="opacity:1;fill:#decd87;fill-opacity:1;fill-rule:evenodd;stroke:none;stroke-width:0.19592616"
       d="m 83.118907,217.18424 c -0.537228,0 -1.074295,0.20601 -1.485944,0.61766 l -18.09548,18.09548 -9.7033,-9.7038 c -0.823301,-0.8233 -2.149071,-0.8233 -2.972369,0 -0.823301,0.82332 -0.823301,2.14908 0,2.97238 l 11.189243,11.18972 c 8.7e-5,9e-5 4.02e-4,-8e-5 4.93e-4,0 0.463105,0.4631 1.084662,0.66542 1.686836,0.60753 0.468357,-0.045 0.924858,-0.24733 1.28505,-0.60753 l 19.581413,-19.58191 c 0.823302,-0.82328 0.823302,-2.14857 0,-2.97187 -0.411651,-0.41165 -0.948716,-0.61766 -1.485942,-0.61766 z"
       id="rect829"
       inkscape:connector-curvature="0"
       inkscape:export-xdpi="96"
       inkscape:export-ydpi="96" />
    <rect
       style="opacity:1;fill:#decd87;fill-opacity:1;fill-rule:evenodd;stroke:none;stroke-width:0.10186046"
       id="rect1969"
       width="3.3113136"
       height="13.997825"
       x="171.92191"
       y="189.40843"
       ry="1.6556568"
       transform="rotate(30)"
       rx="1.6556568" />
    <rect
       rx="1.6556568"
       transform="matrix(-0.8660254,0.5,0.5,0.8660254,0,0)"
       ry="1.6556568"
       y="257.14172"
       x="54.60434"
       height="13.997825"
       width="3.3113136"
       id="rect1971"
       style="opacity:1;fill:#decd87;fill-opacity:1;fill-rule:evenodd;stroke:none;stroke-width:0.10186046" />
    <path
       style="opacity:1;fill:#decd87;fill-opacity:1;fill-rule:evenodd;stroke:none;stroke-width:0.14900151"
       id="path1975"
       sodipodi:type="arc"
       sodipodi:cx="56.911087"
       sodipodi:cy="-202.88312"
       sodipodi:rx="6.923656"
       sodipodi:ry="6.923656"
       sodipodi:start="0"
       sodipodi:end="2.8797933"
       sodipodi:open="true"
       d="m 63.834743,-202.88312 a 6.923656,6.923656 0 0 1 -6.019938,6.86443 6.923656,6.923656 0 0 1 -7.591456,-5.07245"
       transform="rotate(150)" />
    <path
       transform="matrix(0.8660254,0.5,0.5,-0.8660254,0,0)"
       d="m 181.15231,-135.14978 a 6.923656,6.923656 0 0 1 -6.01994,6.86442 6.923656,6.923656 0 0 1 -7.59146,-5.07245"
       sodipodi:open="true"
       sodipodi:end="2.8797933"
       sodipodi:start="0"
       sodipodi:ry="6.923656"
       sodipodi:rx="6.923656"
       sodipodi:cy="-135.14978"
       sodipodi:cx="174.22865"
       sodipodi:type="arc"
       id="path1977"
       style="opacity:1;fill:#decd87;fill-opacity:1;fill-rule:evenodd;stroke:none;stroke-width:0.14900149" />
  </g>
</svg>
